<svg width="628" height="799" viewBox="0 0 628 799" fill="none" xmlns="http://www.w3.org/2000/svg">
<path d="M0 798.502H462.591C564.242 708.269 627.76 580.079 627.76 437.842C627.76 247.81 514.397 82.8354 348.145 -6.1415e-05H0V798.502Z" fill="#CEEFF8"/>
<path d="M437.838 408.625C437.838 443.204 409.805 471.235 375.226 471.235C340.647 471.235 312.614 443.204 312.614 408.625C312.614 374.046 340.647 346.013 375.226 346.013C409.805 346.013 437.838 374.046 437.838 408.625" fill="#F6FCFD"/>
<path d="M88.2494 462.888C55.9905 462.888 25.8086 454.009 0 438.572V142.824C25.8086 127.387 55.9905 118.509 88.2494 118.509C183.346 118.509 260.439 195.599 260.439 290.698C260.439 385.795 183.346 462.888 88.2494 462.888" fill="#EAF8FD"/>
<path d="M527.581 348.101C527.416 348.101 527.253 348.101 527.09 348.099C524.088 329.175 507.697 314.708 487.927 314.708C477.524 314.708 468.055 318.715 460.982 325.269C435.468 305.411 419.054 274.41 419.054 239.574C419.054 183.712 461.26 137.707 515.523 131.709C558.945 183.727 591.541 244.163 610.124 310.037C590.218 333.334 560.627 348.101 527.581 348.101" fill="#DBF3FA"/>
<path d="M325.137 202.007C290.558 202.007 262.525 173.976 262.525 139.397C262.525 104.816 290.558 76.7855 325.137 76.7855C359.716 76.7855 387.749 104.816 387.749 139.397C387.749 173.976 359.716 202.007 325.137 202.007Z" fill="#E2F6FB"/>
<path d="M490.394 383.787C470.293 383.787 454 367.492 454 347.393C454 336.841 458.489 327.339 465.664 320.692C482.428 333.74 503.471 341.543 526.336 341.645C526.632 343.517 526.787 345.437 526.787 347.393C526.787 367.492 510.492 383.787 490.394 383.787" fill="#ECF9FD"/>
<path d="M526.336 341.645C503.471 341.543 482.428 333.74 465.664 320.692C472.156 314.677 480.845 311 490.394 311C508.538 311 523.581 324.277 526.336 341.645Z" fill="#EFFAFD"/>
</svg>
