<svg width="822" height="684" viewBox="0 0 822 684" fill="none" xmlns="http://www.w3.org/2000/svg">
<path d="M330.893 668.756C330.893 676.657 282.33 683.062 222.42 683.062C162.513 683.062 113.947 676.657 113.947 668.756C113.947 660.859 162.513 654.452 222.42 654.452C282.33 654.452 330.893 660.859 330.893 668.756Z" fill="#B5E6EA"/>
<path d="M822 650.877C822 656.801 772.901 661.604 712.335 661.604C651.768 661.604 602.669 656.801 602.669 650.877C602.669 644.951 651.768 640.15 712.335 640.15C772.901 640.15 822 644.951 822 650.877Z" fill="#B5E6EA"/>
<path d="M33.8834 529.579H20.9719V516.665H12.9139V529.579H0V537.637H12.9139V550.548H20.9719V537.637H33.8834V529.579Z" fill="#56C7C7"/>
<path d="M45.6408 505.816C45.6408 510.22 42.0705 513.797 37.6592 513.797C33.2502 513.797 29.6776 510.22 29.6776 505.816C29.6776 501.404 33.2502 497.829 37.6592 497.829C42.0705 497.829 45.6408 501.404 45.6408 505.816Z" fill="#6392D3"/>
<path d="M712.211 609.158H104.609C80.3173 609.158 60.4423 589.28 60.4423 564.989V95.4656C60.4423 71.1721 80.3173 51.2971 104.609 51.2971H712.211C736.502 51.2971 756.379 71.1721 756.379 95.4656V564.989C756.379 589.28 736.502 609.158 712.211 609.158Z" fill="#56C7C7"/>
<path d="M110.184 589.29C94.3305 589.29 81.4764 576.436 81.4764 560.585V99.8722C81.4764 84.0166 94.3305 71.1649 110.184 71.1649H706.636C722.491 71.1649 735.343 84.0166 735.343 99.8722V560.585C735.343 576.436 722.491 589.29 706.636 589.29H110.184" fill="#389E9B"/>
<path d="M699.663 574.309H117.157C106.917 574.309 98.6129 566.007 98.6129 555.765V104.69C98.6129 94.4476 106.917 86.1458 117.157 86.1458H699.663C709.902 86.1458 718.207 94.4476 718.207 104.69V555.765C718.207 566.007 709.902 574.309 699.663 574.309" fill="#CEEFF8"/>
<path d="M18.6611 573.226C32.6265 596.244 57.9333 611.71 86.6789 611.71H730.141C758.886 611.71 784.193 596.244 798.158 573.226H18.6611Z" fill="#389E9B"/>
<path d="M26.982 584.52H789.84C792.925 581.01 795.723 577.239 798.158 573.226H18.6611C21.0962 577.239 23.897 581.01 26.982 584.52" fill="#56C7C7"/>
<path d="M320.562 473.268H147.324V376.318H320.562V473.268" fill="#DD4921"/>
<path d="M381.944 137.123H316.777V128.144H381.944V137.123Z" fill="#56C7C7"/>
<path d="M272.293 137.123H232.509V128.144H272.293V137.123Z" fill="#56C7C7"/>
<path d="M220.489 137.123H141.668V128.144H220.489V137.123Z" fill="#56C7C7"/>
<path d="M301.844 137.123H284.748V128.144H301.844V137.123Z" fill="#56C7C7"/>
<path d="M438.173 137.123H398.528V128.144H438.173V137.123Z" fill="#56C7C7"/>
<path d="M341.224 163.347H316.777V154.369H341.224V163.347Z" fill="#56C7C7"/>
<path d="M375.394 163.347H350.945V154.369H375.394V163.347Z" fill="#56C7C7"/>
<path d="M231.764 163.347H191.98V154.369H231.764V163.347Z" fill="#56C7C7"/>
<path d="M180.699 163.347H141.668V154.369H180.699V163.347Z" fill="#56C7C7"/>
<path d="M308.2 163.347H242.685V154.369H308.2V163.347Z" fill="#56C7C7"/>
<path d="M256.59 652.28C252.471 639.058 244.475 583.12 242.685 561.211C242.307 556.57 191.33 536.657 191.33 536.657C161.488 535.902 146.13 547.604 146.13 547.604L217.784 571.807C217.784 604.123 245.333 652.863 245.333 652.863L256.59 652.28Z" fill="#2E338E"/>
<path d="M195.12 578.226L173.843 652.332L185.999 654.983C191.297 637.5 221.921 577.592 222.752 570.469C223.104 567.434 222.889 565.087 221.753 564.139C220.611 563.183 186.267 542.66 176.292 540.416C162.929 537.412 143.087 532.604 143.087 532.604C143.087 532.604 131.901 544.304 134.078 563.331C136.26 582.358 195.12 578.226 195.12 578.226" fill="#4842A2"/>
<path d="M166.406 447.918C166.406 447.918 143.087 449.985 142.026 456.344C140.968 462.701 153.153 502.936 153.153 502.936L141.305 534.554C141.305 534.554 174.939 542.832 191.33 536.657C192.886 537.372 195.534 503.464 195.534 503.464L201.374 486.808L208.777 511.941L225.732 535.782L236.856 526.776L224.501 505.061C224.501 505.061 205.379 461.423 200.301 456.344C190.766 446.807 166.406 447.918 166.406 447.918" fill="white"/>
<path d="M184.89 449.596L183.084 425.615H165.603V448.016C163.388 448.265 167.986 466.145 182.073 466.145C182.073 466.145 188.647 463.76 184.89 449.596Z" fill="#E66242"/>
<path d="M149.451 490.223C151.494 497.454 153.153 502.936 153.153 502.936L141.305 534.554C141.305 534.554 166.898 540.851 184.312 538.361C182.758 537.219 162.109 523.306 161.098 517.238C158.979 504.525 149.451 490.223 149.451 490.223Z" fill="#F2F2F2"/>
<path d="M200.459 401.403C198.98 395.266 189.402 393.488 174.263 395.269C163.966 396.478 161.653 405.955 161.364 412.998L160.9 413.101C157.347 414.19 154.814 417.648 155.007 421.407C155.108 423.329 155.784 425.083 157.053 426.507C158.389 428.684 160.668 430.149 163.28 430.481C164.012 430.574 164.731 430.541 165.436 430.44C169.723 439.361 177.587 450.48 188.621 449.154C204.796 437.841 200.459 401.403 200.459 401.403Z" fill="#F78D61"/>
<path d="M165.794 417.565C165.794 417.565 162.451 409.547 169.995 403.881C177.537 398.218 178.046 406.577 185.999 407.604C193.949 408.629 201.797 407.982 200.944 413.237C205.759 401.362 198.798 394.571 191.017 390.848C183.239 387.13 171.054 385.521 162.589 392.585C154.125 399.647 155.272 416.611 155.272 416.611C160.852 413.913 162.348 416.097 165.794 417.565" fill="#1E204B"/>
<path d="M162.59 392.585C162.59 392.585 155.564 373.711 142.253 378.383C128.943 383.057 134.946 409.882 133.476 421.553C132.006 433.224 123.645 433.736 120.643 428.548C115.078 439.124 136.884 449.876 143.984 439.71C151.083 429.542 146.992 403.774 151.533 401.147C156.073 398.521 160.644 401.934 160.644 401.934L162.59 392.585" fill="#1E204B"/>
<path d="M142.557 454.225C136.955 457.456 126.663 496.049 126.663 502.406C126.663 508.762 176.292 540.416 176.292 540.416C176.292 540.416 178.581 532.604 183.879 531.015C182.818 530.484 146.794 496.049 146.794 496.049L156.331 469.058C156.331 469.058 156.331 446.279 142.557 454.225" fill="white"/>
<path d="M172.497 545.279L223.085 543.728L255.931 555.916L200.325 558.864L172.497 545.279Z" fill="#56C7C7"/>
<path d="M200.325 558.864L172.497 548.082V545.279L202.526 556.114L200.325 558.864Z" fill="#389E9B"/>
<path d="M200.325 558.864L217.046 513.212L272.353 516.18L255.931 556.974L200.325 558.864" fill="#389E9B"/>
<path d="M234.292 533.407C232.651 536.698 233.148 540.277 235.403 541.405C237.659 542.536 240.823 540.784 242.47 537.498C244.114 534.21 243.617 530.628 241.359 529.5C239.103 528.37 235.939 530.121 234.292 533.407Z" fill="#56C7C7"/>
<path d="M183.879 531.015C183.879 531.015 204.01 546.907 201.89 547.965C199.773 549.026 190.766 549.026 185.999 546.376C181.229 543.728 176.292 540.416 176.292 540.416C176.292 540.416 178.051 531.543 183.879 531.015Z" fill="#F78D61"/>
<path d="M186.53 651.274C190.102 654.894 202.261 660.386 208.249 661.867C214.67 663.459 213.545 668.853 208.854 668.853C199.639 668.853 179.148 667.698 169.044 667.698C167.455 662.931 170.194 656.555 173.408 652.258C174.387 650.946 186.016 650.757 186.53 651.274Z" fill="#1E204B"/>
<path d="M259.109 651.274C262.682 654.894 274.84 660.386 280.829 661.867C287.25 663.459 286.124 668.853 281.433 668.853C272.219 668.853 251.727 667.698 241.624 667.698C240.035 662.931 242.773 656.555 245.99 652.258C246.967 650.946 258.595 650.757 259.109 651.274Z" fill="#1E204B"/>
<path d="M196.841 352.018H148.261V338.633H196.841V352.018Z" fill="#59C599"/>
<path d="M320.562 352.018H271.982V338.633H320.562V352.018Z" fill="#59C599"/>
<path d="M258.703 352.018H210.123V338.633H258.703V352.018Z" fill="#59C599"/>
<path d="M479.479 137.796L325.543 175.542L311.482 118.196L465.418 80.451L479.479 137.796Z" fill="#FAB229"/>
<path d="M436.854 104.107L323.466 131.908L321.523 123.979L434.909 96.1777L436.854 104.107Z" fill="#FCD887"/>
<path d="M421.665 122.77L326.921 146L324.976 138.071L419.723 114.841L421.665 122.77" fill="#FCD887"/>
<path d="M375.659 150.414L330.707 161.435L328.761 153.506L373.716 142.485L375.659 150.414Z" fill="#FCD887"/>
<path d="M450.463 115.919L426.387 121.824L424.442 113.9L448.521 107.997L450.463 115.919" fill="white"/>
<path d="M319.32 182.799V323.879H146.428V182.799H319.32Z" fill="white"/>
<path d="M672.274 327.791H332.265V264.168H672.274V327.791Z" fill="#60B3E1"/>
<path d="M662.099 318.584H570.089V273.376H662.099V318.584Z" fill="white"/>
<path d="M557.373 284.836H344.698V276.116H557.373V284.836Z" fill="#86D8ED"/>
<path d="M557.373 300.338H344.698V291.618H557.373V300.338Z" fill="#86D8ED"/>
<path d="M487.879 315.843H344.698V307.123H487.879V315.843Z" fill="#86D8ED"/>
<path d="M659.093 526.546H332.344V373.238H659.093V526.546" fill="white"/>
<path d="M659.093 398.657V373.238H332.341V398.657H659.093Z" fill="#F9B72C"/>
<path d="M528.945 447.742H340.268V434.801H528.945V447.742Z" fill="#A0DFE3"/>
<path d="M509.47 470.749H340.268V457.809H509.47V470.749Z" fill="#A0DFE3"/>
<path d="M454.385 493.755H340.268V480.812H454.385V493.755Z" fill="#A0DFE3"/>
<path d="M408.278 426.547H340.268V413.607H408.278V426.547Z" fill="#A0DFE3"/>
<path d="M646.007 511.663H547.32V412.976H646.007V511.663Z" fill="#90D9E9"/>
<path d="M606.754 461.676C608.305 459.585 609.23 457.006 609.23 454.203V446.664C609.23 439.722 603.607 434.096 596.665 434.096C589.723 434.096 584.098 439.722 584.098 446.664V454.203C584.098 457.15 585.118 459.855 586.817 461.998C575.285 466.058 567.016 477.041 567.019 489.963H629.172C629.172 489.963 626.766 467.478 606.754 461.676" fill="#F9FDF9"/>
<path d="M355.638 386.585C355.638 390.129 352.768 392.999 349.227 392.999C345.683 392.999 342.813 390.129 342.813 386.585C342.813 383.046 345.683 380.173 349.227 380.173C352.768 380.173 355.638 383.046 355.638 386.585Z" fill="#DD4921"/>
<path d="M376.189 386.585C376.189 390.129 373.317 392.999 369.776 392.999C366.234 392.999 363.364 390.129 363.364 386.585C363.364 383.046 366.234 380.173 369.776 380.173C373.317 380.173 376.189 383.046 376.189 386.585Z" fill="#FAE964"/>
<path d="M400.029 386.585C400.029 390.129 397.157 392.999 393.615 392.999C390.074 392.999 387.201 390.129 387.201 386.585C387.201 383.046 390.074 380.173 393.615 380.173C397.157 380.173 400.029 383.046 400.029 386.585Z" fill="#3EB881"/>
<path d="M662.271 236.455H547.838V122.025H662.271V236.455Z" fill="#DD4921"/>
<path d="M708.06 630.369C708.06 630.369 709.047 633.38 699.816 637.59C690.584 641.803 680.837 640.317 678.447 643.854C676.057 647.393 675.498 650.743 675.498 650.743H728.021C728.021 650.743 727.622 636.243 721.676 629.802C722.434 631.188 708.06 630.369 708.06 630.369" fill="#9B3A28"/>
<path d="M765.262 630.347C765.262 630.347 766.213 633.241 757.335 637.292C748.46 641.342 739.09 639.911 736.791 643.314C734.492 646.714 733.955 649.938 733.955 649.938H784.456C784.456 649.938 784.074 635.992 778.355 629.802C779.084 631.133 765.262 630.347 765.262 630.347Z" fill="#9B3A28"/>
<path d="M697.71 354.188L659.573 360.891L632.754 303.478L673.823 300.126L697.71 354.188Z" fill="white"/>
<path d="M650.096 348.383L650.127 348.379L650.096 348.383Z" fill="#242640"/>
<path d="M724.112 246.487C724.112 246.487 719.082 256.542 719.082 265.764C719.082 272.207 719.901 281.517 720.393 286.54C720.573 288.366 722.377 289.57 724.131 289.03L731.654 286.717L731.233 297.612L752.217 297.248L756.796 253.19C756.796 253.19 739.195 233.915 724.112 246.487" fill="#F78D61"/>
<path d="M725.693 269.616C725.693 269.616 726.874 260.892 733.453 262.698C740.034 264.505 732.492 273.306 732.492 273.306L738.777 284.621C743.382 286.287 748.467 286.409 753.445 284.201C753.445 284.201 760.43 262.968 760.43 256.263C760.43 249.56 754.315 245.031 754.315 245.031C754.315 245.031 737.938 236.847 729.137 237.267C720.338 237.685 719.499 246.487 719.499 246.487C719.499 246.487 716.149 253.19 719.499 256.124C722.852 259.056 725.693 269.616 725.693 269.616Z" fill="#1E204B"/>
<path d="M753.165 291.186L752.217 297.248L730.535 297.332C730.535 297.332 734.727 290.627 753.165 291.186Z" fill="#6FA5D0"/>
<path d="M660.412 345.387C660.412 345.387 661.93 340.633 655.802 337.842C655.96 336.729 654.576 331.165 653.288 329.88C652 328.597 651.193 335.747 651.193 335.747C651.193 335.747 645.19 325.06 643.651 327.786C642.107 330.508 657.2 351.53 657.618 352.369C658.037 353.208 660.412 345.387 660.412 345.387" fill="#F78D61"/>
<path d="M716.847 414.391L702.32 537.317L705.266 632.603L723.55 631.296C723.55 631.296 728.719 581.179 729.137 568.607C729.558 556.035 725.787 536.757 725.787 536.757L744.225 460.768L747.291 461.327L748.135 536.201L764.934 631.296L780.303 632.039C780.303 632.039 780.685 582.996 779.426 570.844C778.169 558.69 771.604 534.384 771.604 534.384L778.307 456.856C778.307 456.856 785.013 436.462 773.002 413.552C771.463 413.693 716.847 414.391 716.847 414.391" fill="#1E204B"/>
<path d="M730.535 297.332C730.535 297.332 704.554 305.713 699.804 310.464C695.055 315.212 681.434 364.165 681.434 364.165L660.907 343.597L654.545 358.515C654.545 358.515 678.571 394.277 686.113 395.395C693.66 396.509 710.698 350.135 710.698 350.135C710.698 350.135 712.247 375.468 715.169 388.131C718.522 402.658 716.847 414.391 716.847 414.391C740.096 418.611 759.871 417.744 773.002 413.552L779.507 364.745C779.507 364.745 788.365 365.78 791.159 362.707C793.953 359.634 781.101 309.068 778.307 305.156C775.514 301.244 752.217 297.249 752.217 297.249L730.535 297.332" fill="#9DC8EC"/>
<path d="M755.835 330.888C755.696 329.896 754.059 330.138 754.095 331.125C754.874 352.128 754.164 372.605 750.864 393.4C750.644 394.796 752.719 395.431 753.029 393.997C757.488 373.437 758.767 351.757 755.835 330.888" fill="#6FA5D0"/>
<path d="M779.681 346.447C779.54 345.745 778.475 345.931 778.463 346.615C778.236 358.888 776.718 370.619 774.393 382.67C772.324 393.378 770.431 404.099 771.126 415.048C771.224 416.58 773.593 416.604 773.526 415.048C772.997 402.402 775.569 390.193 777.87 377.831C779.782 367.565 781.753 356.835 779.681 346.447Z" fill="#6FA5D0"/>
<path d="M713.078 346.075C706.103 350.507 703.484 359.187 700.812 366.571C697.199 376.56 693.588 386.374 685.719 393.871C684.548 394.987 686.297 396.71 687.489 395.639C702.014 382.563 701.323 361.185 713.709 346.894C714.077 346.469 713.606 345.738 713.078 346.075Z" fill="#6FA5D0"/>
<path d="M773.279 409.922C773.279 409.922 738.077 414.391 716.847 407.686C717.404 407.686 716.847 414.391 716.847 414.391C716.847 414.391 743.915 424.547 774.957 416.625C774.711 416.527 773.279 409.922 773.279 409.922Z" fill="#9B3A28"/>
<path d="M409.036 553C409.036 553 406.12 559.357 401.09 560.415C396.055 561.476 382.811 564.389 380.691 566.244C378.572 568.098 378.572 572.866 378.572 572.866H420.614C420.614 572.866 420.54 560.138 418.097 553.523C419.101 553.528 409.036 553 409.036 553" fill="#1B1A33"/>
<path d="M490.092 553C490.092 553 487.176 559.357 482.146 560.415C477.111 561.476 463.867 564.389 461.75 566.244C459.63 568.098 459.63 572.866 459.63 572.866H501.67C501.67 572.866 501.593 560.138 499.153 553.523C500.157 553.528 490.092 553 490.092 553Z" fill="#1B1A33"/>
<path d="M484.94 139.823C484.94 139.823 473.228 136.836 472.521 138.702C471.816 140.566 490.622 146.129 490.622 146.129L507.558 193.087L501.216 208.113L512.873 220.829C512.873 220.829 525.588 203.611 526.647 198.576C527.706 193.543 496.448 142.949 496.448 142.949C496.448 142.949 490.245 123.236 489.296 122.29C488.35 121.341 477.152 121.936 474.614 121.979C472.081 122.025 481.996 132.064 481.996 132.064L484.94 139.823" fill="#E88764"/>
<path d="M439.382 174.586C439.382 174.586 433.802 182.419 432.61 190.762C431.417 199.107 433.007 207.055 433.007 207.055L443.246 206.715V216.296H463.602C463.602 216.296 464.001 209.041 464.794 205.066C465.59 201.095 471.151 193.543 471.151 193.543L462.013 167.718L448.903 166.526L439.382 174.586" fill="#E88764"/>
<path d="M444.532 186.79C444.532 186.79 448.107 178.445 452.478 181.623C456.849 184.804 451.285 191.557 451.285 191.557C451.285 191.557 454.067 203.08 458.835 204.669C463.602 206.259 463.602 206.259 463.602 206.259C463.602 206.259 475.918 194.735 477.907 191.557C479.893 188.379 474.728 170.1 471.151 166.129C467.576 162.154 452.081 162.551 450.889 160.565C449.696 158.579 445.725 155.002 441.751 156.591C437.774 158.183 438.57 171.293 438.57 171.293C438.57 171.293 443.483 175.522 443.808 178.574C444.133 181.623 441.858 185.664 441.858 185.664L444.532 186.79" fill="#1E204B"/>
<path d="M425.281 216.907C425.281 216.907 445.591 213.942 457.246 213.676C468.9 213.411 487.444 219.503 487.444 219.503L500.939 205.054L518.125 221.211C518.125 221.211 503.495 242.807 498.781 247.842C494.066 252.879 490.622 276.456 489.561 283.606C488.503 290.758 485.855 332.611 485.855 332.611C485.855 332.611 473.405 347.444 422.28 331.287C421.749 330.757 424.399 300.558 424.134 293.143C423.869 285.726 417.247 260.562 415.923 254.468C414.597 248.377 393.477 236.185 393.477 236.185C393.477 236.185 390.87 221.343 400.615 214.197C401.884 215 425.281 216.907 425.281 216.907" fill="#1E204B"/>
<path d="M378.041 156.195C378.041 156.195 370.361 163.347 369.833 166.26C369.302 169.176 380.403 202.364 380.403 202.364L400.614 214.197L393.476 236.185C393.476 236.185 371.422 220.829 368.244 216.324C365.065 211.822 359.502 166.791 359.502 166.791C359.502 166.791 352.348 157.784 351.819 155.399C351.289 153.016 349.623 145.219 350.852 143.687C352.085 142.155 360.281 133.674 361.481 136.193C362.681 138.712 367.09 157.06 367.09 157.06C367.09 157.06 376.189 153.016 378.041 156.195" fill="#E88764"/>
<path d="M422.279 331.287L410.759 439.892L404.799 555.12L424.664 555.916C424.664 555.916 436.983 479.462 437.179 467.822C437.377 456.182 436.981 442.276 436.981 442.276L449.696 384.264H456.849L471.548 459.757L486.648 553.528L502.542 554.324C502.542 554.324 504.924 495.915 502.542 483.996C500.157 472.076 496.582 460.553 496.582 460.553L489.43 382.276C489.43 382.276 495.786 354.465 485.855 332.611C483.869 328.637 422.279 331.287 422.279 331.287" fill="#4842A2"/>
<path d="M300.893 207.738H287.981V194.824H279.923V207.738H267.007V215.794H279.923V228.708H287.981V215.794H300.893V207.738Z" fill="#F9B72C"/>
<path d="M180.699 277.546C175.375 277.546 171.042 281.876 171.042 287.197C171.042 292.519 175.375 296.852 180.699 296.852C186.018 296.852 190.353 292.519 190.353 287.197C190.353 281.876 186.018 277.546 180.699 277.546ZM180.699 307.388C169.568 307.388 160.506 298.331 160.506 287.197C160.506 276.066 169.568 267.009 180.699 267.009C191.832 267.009 200.889 276.066 200.889 287.197C200.889 298.331 191.832 307.388 180.699 307.388Z" fill="#56C7C7"/>
<path d="M801.535 121.912H788.624V108.998H780.566V121.912H767.649V129.97H780.566V142.884H788.624V129.97H801.535V121.912Z" fill="#56C7C7"/>
<path d="M737.004 33.7805C737.004 38.1871 733.431 41.7621 729.022 41.7621C724.613 41.7621 721.041 38.1871 721.041 33.7805C721.041 29.3715 724.613 25.7942 729.022 25.7942C733.431 25.7942 737.004 29.3715 737.004 33.7805Z" fill="#6392D3"/>
<path d="M581.215 144.041C575.886 144.041 571.556 148.371 571.556 153.693C571.556 159.017 575.886 163.347 581.215 163.347C586.532 163.347 590.867 159.017 590.867 153.693C590.867 148.371 586.532 144.041 581.215 144.041ZM581.215 173.883C570.082 173.883 561.02 164.827 561.02 153.693C561.02 142.559 570.082 133.505 581.215 133.505C592.346 133.505 601.403 142.559 601.403 153.693C601.403 164.827 592.346 173.883 581.215 173.883Z" fill="#FAB229"/>
<path d="M688.493 10.5362C683.169 10.5362 678.837 14.8664 678.837 20.1882C678.837 25.51 683.169 29.8425 688.493 29.8425C693.813 29.8425 698.145 25.51 698.145 20.1882C698.145 14.8664 693.813 10.5362 688.493 10.5362ZM688.493 40.3787C677.36 40.3787 668.298 31.3217 668.298 20.1882C668.298 9.05702 677.36 4.684e-05 688.493 4.684e-05C699.629 4.684e-05 708.684 9.05702 708.684 20.1882C708.684 31.3217 699.629 40.3787 688.493 40.3787Z" fill="#FAB229"/>
</svg>
